<svg xmlns="http://www.w3.org/2000/svg" xmlns:xlink="http://www.w3.org/1999/xlink" width="29" height="28" viewBox="0 0 29 28">
  <defs>
    <clipPath id="clip-path">
      <rect id="Rectangle_71" data-name="Rectangle 71" width="29" height="28" transform="translate(-2 -0.95)" fill="none" stroke="#eee" stroke-width="1.5"/>
    </clipPath>
  </defs>
  <g id="compass" transform="translate(2 0.95)">
    <g id="Group_2878" data-name="Group 2878" clip-path="url(#clip-path)">
      <path id="Path_3911" data-name="Path 3911" d="M12.481.5A11.919,11.919,0,0,0,.5,12.357,11.919,11.919,0,0,0,12.481,24.213,11.857,11.857,0,1,0,12.481.5ZM17.96,8.43l-2.044,6a2.1,2.1,0,0,1-1.344,1.319L8.468,17.741A1.156,1.156,0,0,1,7,16.281l2.044-6A2.111,2.111,0,0,1,10.39,8.964L16.495,6.97A1.157,1.157,0,0,1,17.96,8.43Z" transform="translate(0.356 0.699)" fill="none" stroke="#eee" stroke-miterlimit="10" stroke-width="1.5"/>
    </g>
  </g>
</svg>
