<svg id="house" xmlns="http://www.w3.org/2000/svg" xmlns:xlink="http://www.w3.org/1999/xlink" width="25" height="25" viewBox="0 0 25 25">
  <defs>
    <clipPath id="clip-path">
      <rect id="Rectangle_69" data-name="Rectangle 69" width="25" height="25" fill="none" stroke="#eee" stroke-width="1.5"/>
    </clipPath>
  </defs>
  <g id="Group_2874" data-name="Group 2874" clip-path="url(#clip-path)">
    <path id="Path_3909" data-name="Path 3909" d="M14.612,18.2v4.522A1.23,1.23,0,0,0,15.792,24h7.132a1.23,1.23,0,0,0,1.18-1.274V11.377a2.138,2.138,0,0,0-.556-1.45L13.58.976a1.8,1.8,0,0,0-2.681,0L.931,9.926a2.138,2.138,0,0,0-.556,1.45V22.725A1.23,1.23,0,0,0,1.555,24H8.687a1.23,1.23,0,0,0,1.18-1.274V18.2a2.476,2.476,0,0,1,2.373-2.567A2.476,2.476,0,0,1,14.612,18.2Z" transform="translate(0.261 0.312)" fill="none" stroke="#eee" stroke-miterlimit="10" stroke-width="1.5"/>
  </g>
</svg>
