<svg id="Component_4_1" data-name="Component 4 – 1" xmlns="http://www.w3.org/2000/svg" width="283" height="71.287" viewBox="0 0 283 71.287">
  <text id="explorevi" transform="translate(0 32.287)" fill="#fff" font-size="32" font-family="SwistblnkMonthoers, Swistblnk Monthoers"><tspan x="89.276" y="32">explorevi</tspan></text>
  <g id="Group_2922" data-name="Group 2922" transform="translate(28 -0.003)">
    <path id="Path_4000" data-name="Path 4000" d="M352.337,90.689c-9.279.633-14.82-7.928-21.642-10.337,1.183-.87,2.088-4.685,1.455-6-11.138,1.392-18.37,9.049-29.292,10.692A110.715,110.715,0,0,1,287.05,74.227c-.745-1.392-.223-3.62-.633-5.242-2.367-.223-5.4,2.847-5.367,3.787.738-.759,1.357-1.692,2.833-1.225-.1,6.369,7.608,7.984,10.281,12.662.1,2.4-1.907,1.35-2.088,3.313,5.047,2.541,10.079,5.478,11.917,11.137,7.56,2.4,13.643-1.309,21.266-1.2,4.733,3.585,11.138,8.353,17.569,6.167-6.2-.814-13.421-3.62-15.787-8.277-5.959,2.269-13.226,2.374-20.354,2.694-2.9-3.362-6.209-6.167-8.005-8.938,5.513-3.167,12.711,5.819,17.569,6.167,1.956-5.283-2.965-6.369-4.713-9.4,5.784-3.383,10.956-7.761,18.064-8.966-.494,2.429-2.784,4.873-1.747,7.2,8.959-.7,11.3,9.369,20.883,8.242,1.392,6.314,3.369,14.994,12.244,15.05C357.014,102.759,349.295,97.942,352.337,90.689Z" transform="translate(-156.4 -68.97)" fill="#fff" fill-rule="evenodd"/>
    <path id="Path_4001" data-name="Path 4001" d="M268.179,79.95c1.469-2.638,7.462-2.283,7.01-5.29C273.713,77.291,267.727,76.943,268.179,79.95Z" transform="translate(-152.482 -70.698)" fill="#fff" fill-rule="evenodd"/>
    <path id="Path_4002" data-name="Path 4002" d="M211.4,84.553c-7.7,3.689-15.356,8-23.591,10.8a690.049,690.049,0,0,1-85.828,23.667c11.68,2.917,23.375-3.084,33.962-6.383,23.236-7.232,47.822-12.488,69.206-23.263,3.668-1.852,8.764-4.128,9.982-7.107a5.13,5.13,0,0,1-3.731,2.283Z" transform="translate(-101.98 -73.011)" fill="#fff" fill-rule="evenodd"/>
    <path id="Path_4003" data-name="Path 4003" d="M284.246,97.336c.919-1.566,2.534-1.991,2.965-4.365-1.469-.445-2.569-.292-3.292.473,3.634,1.343-3.7,3.856-3.689,7.372,5,.355,10.6-2.743,12.53-4.587C290.261,96.64,286.544,99.445,284.246,97.336Z" transform="translate(-156.151 -76.188)" fill="#fff" fill-rule="evenodd"/>
    <path id="Path_4004" data-name="Path 4004" d="M241.986,97.94c-5.144,11.256,8.687,4.706,12.745,2.457C250.256,100.1,241.325,107.094,241.986,97.94Z" transform="translate(-144.185 -77.773)" fill="#fff" fill-rule="evenodd"/>
  </g>
</svg>
