<svg id="tent" xmlns="http://www.w3.org/2000/svg" xmlns:xlink="http://www.w3.org/1999/xlink" width="34.693" height="25.885" viewBox="0 0 34.693 25.885">
  <defs>
    <clipPath id="clip-path">
      <rect id="Rectangle_75" data-name="Rectangle 75" width="34.693" height="25.885" fill="none" stroke="#eee" stroke-width="1.5"/>
    </clipPath>
  </defs>
  <path id="Path_3912" data-name="Path 3912" d="M27.941,26.36H4.6L16.272,6.321Z" transform="translate(-2.117 -2.907)" fill="none" stroke="#eee" stroke-linecap="round" stroke-linejoin="round" stroke-width="1.5"/>
  <path id="Path_3913" data-name="Path 3913" d="M26.209,6.321,37.877,26.36l6.595-4.936-12.9-15.1Z" transform="translate(-12.054 -2.907)" fill="none" stroke="#eee" stroke-linecap="round" stroke-linejoin="round" stroke-width="1.5"/>
  <g id="Group_2883" data-name="Group 2883">
    <g id="Group_2882" data-name="Group 2882" clip-path="url(#clip-path)">
      <path id="Path_3914" data-name="Path 3914" d="M17.69,31.309c4.31,0,4.882-12.02,4.6-14.228,0,0,2.58,9.583,6.351,14.228" transform="translate(-8.136 -7.856)" fill="none" stroke="#eee" stroke-linecap="round" stroke-linejoin="round" stroke-width="1.5"/>
      <path id="Path_3915" data-name="Path 3915" d="M19.869,17.081s-2.746,10.325-7.445,14.228" transform="translate(-5.714 -7.856)" fill="none" stroke="#eee" stroke-linecap="round" stroke-linejoin="round" stroke-width="1.5"/>
      <path id="Path_3916" data-name="Path 3916" d="M2.866,43.425.826,44.478v.763" transform="translate(-0.38 -19.972)" fill="none" stroke="#eee" stroke-linecap="round" stroke-linejoin="round" stroke-width="1.5"/>
      <path id="Path_3917" data-name="Path 3917" d="M47.857,43.473l1.808,1.146v.814" transform="translate(-22.01 -19.994)" fill="none" stroke="#eee" stroke-linecap="round" stroke-linejoin="round" stroke-width="1.5"/>
      <path id="Path_3918" data-name="Path 3918" d="M60.024,34.285l1.829.683v.721" transform="translate(-27.606 -15.768)" fill="none" stroke="#eee" stroke-linecap="round" stroke-linejoin="round" stroke-width="1.5"/>
      <line id="Line_95" data-name="Line 95" x1="1.521" y1="2.968" transform="translate(12.634 0.446)" fill="none" stroke="#eee" stroke-linecap="round" stroke-linejoin="round" stroke-width="1.5"/>
      <line id="Line_96" data-name="Line 96" x1="1.55" y2="2.968" transform="translate(14.155 0.446)" fill="none" stroke="#eee" stroke-linecap="round" stroke-linejoin="round" stroke-width="1.5"/>
    </g>
  </g>
</svg>
